<?xml version="1.0" encoding="utf-8"?>
<!-- Generator: Adobe Illustrator 23.0.0, SVG Export Plug-In . SVG Version: 6.00 Build 0)  -->
<svg version="1.1" xmlns="http://www.w3.org/2000/svg" xmlns:xlink="http://www.w3.org/1999/xlink" x="0px" y="0px"
	viewBox="0 0 256 256" style="enable-background:new 0 0 256 256;" xml:space="preserve">
	<style type="text/css">
		.st0 {
			fill: none;
			stroke: #ED1C24;
			stroke-width: 30;
			stroke-linecap: round;
			stroke-miterlimit: 10;
		}

		.st1 {
			fill: #FBB03B;
			stroke: #231815;
			stroke-width: 12;
			stroke-linecap: round;
			stroke-miterlimit: 10;
		}
	</style>
	<g id="图层_3">
		<circle class="st0" cx="89" cy="87" r="59" />
	</g>
	<g id="图层_1">
		<path class="st1"
			d="M222.5,140.6L113.8,95c-6.9-2.9-15.3,3-14.9,10.5l6.7,117.7c0.4,7.3,9,10.7,15.5,6.1l22-25.9l28.7,40.5
		c2.2,3.1,6.7,3.6,10.1,1.2l34.7-24.5c3.4-2.4,4.4-6.9,2.3-9.9L190,169.8l33.1-12.6C229.6,152.6,229.3,143.4,222.5,140.6z" />
	</g>
	<g id="图层_2">
		<polygon class="st1" points="10,53.5 48.1,16.4 71.1,60.5 64.1,72.5 	" />
		<polygon class="st1" points="110.2,11.5 107.3,60 114.7,65.5 155,37.1 	" />
		<polygon class="st1" points="26.6,127.6 64.7,102.5 68.7,109.5 53.7,153.6 	" />
	</g>
</svg>